<svg width="40" height="40" viewBox="0 0 40 40" fill="none" xmlns="http://www.w3.org/2000/svg">
<g clip-path="url(#clip0_1445_19992)">
<path d="M18.3472 19.0768C18.3472 19.0768 19.9674 18.9581 19.9674 17.0827C19.9674 15.2073 18.6418 14.292 16.9627 14.292H11.4375V24.7725H16.9627C16.9627 24.7725 20.3357 24.8776 20.3357 21.6791C20.3357 21.6791 20.4828 19.0768 18.3472 19.0768V19.0768ZM16.565 16.1548H16.9627C16.9627 16.1548 17.7138 16.1548 17.7138 17.2452C17.7138 18.3355 17.2721 18.4936 16.7711 18.4936H13.872V16.1548H16.565V16.1548ZM16.8066 22.9097H13.872V20.109H16.9627C16.9627 20.109 18.0821 20.0945 18.0821 21.5483C18.0821 22.7742 17.2461 22.9005 16.8066 22.9097V22.9097ZM24.8341 16.9585C20.7508 16.9585 20.7544 20.9855 20.7544 20.9855C20.7544 20.9855 20.4743 24.9917 24.8341 24.9917C24.8341 24.9917 28.4673 25.1966 28.4673 22.2048H26.5988C26.5988 22.2048 26.6612 23.3314 24.8965 23.3314C24.8965 23.3314 23.0277 23.4551 23.0277 21.5081H28.5297C28.5297 21.508 29.1317 16.9585 24.8341 16.9585ZM23.0071 20.109C23.0071 20.109 23.2353 18.4936 24.8756 18.4936C26.5157 18.4936 26.4951 20.109 26.4951 20.109H23.0071ZM26.9304 16.2H22.5497V14.9094H26.9304V16.2Z" fill="white"/>
</g>
<defs>
<clipPath id="clip0_1445_19992">
<rect width="17.1242" height="17.1242" fill="white" transform="translate(11.4375 11.438)"/>
</clipPath>
</defs>
</svg>
