<svg width="40" height="40" viewBox="0 0 40 40" fill="none" xmlns="http://www.w3.org/2000/svg">
<g clip-path="url(#clip0_1445_19989)">
<path d="M11.4375 20.0001C11.4375 18.4475 11.82 17.0148 12.5848 15.7019C13.3497 14.3891 14.3886 13.3502 15.7014 12.5853C17.0143 11.8204 18.447 11.438 19.9996 11.438C21.5522 11.438 22.9849 11.8204 24.2978 12.5853C25.6106 13.3502 26.6495 14.3891 27.4144 15.7019C28.1792 17.0148 28.5617 18.4475 28.5617 20.0001C28.5617 21.5527 28.1792 22.9854 27.4144 24.2983C26.6495 25.6111 25.6106 26.65 24.2978 27.4149C22.9849 28.1797 21.5522 28.5622 19.9996 28.5622C18.447 28.5622 17.0143 28.1797 15.7014 27.4149C14.3886 26.65 13.3497 25.6111 12.5848 24.2983C11.82 22.9854 11.4375 21.5527 11.4375 20.0001ZM12.8588 20.0001C12.8588 21.781 13.4582 23.3507 14.6568 24.7092C15.2048 23.6361 16.0725 22.6144 17.2597 21.644C18.447 20.6736 19.6057 20.0629 20.7359 19.8117C20.5647 19.4122 20.3992 19.0525 20.2393 18.7329C18.2758 19.3608 16.1524 19.6747 13.8691 19.6747C13.4239 19.6747 13.0928 19.669 12.8759 19.6576C12.8759 19.7033 12.8731 19.7603 12.8674 19.8288C12.8617 19.8973 12.8588 19.9544 12.8588 20.0001ZM13.0814 18.2363C13.3326 18.2591 13.7036 18.2705 14.1945 18.2705C16.101 18.2705 17.9104 18.0137 19.6229 17.4999C18.7552 15.9588 17.802 14.6745 16.7631 13.647C15.8613 14.1037 15.0878 14.7373 14.4428 15.5478C13.7978 16.3583 13.344 17.2545 13.0814 18.2363ZM15.6329 25.6339C16.923 26.6386 18.3785 27.1409 19.9996 27.1409C20.8444 27.1409 21.6835 26.981 22.5168 26.6614C22.2885 24.7092 21.8433 22.8199 21.1812 20.9933C20.1309 21.2216 19.072 21.7981 18.0046 22.7228C16.9372 23.6475 16.1467 24.6179 15.6329 25.6339ZM18.2529 13.099C19.2575 14.1379 20.188 15.4336 21.0442 16.9862C22.5968 16.3355 23.7669 15.5078 24.5546 14.5032C23.2304 13.4073 21.712 12.8593 19.9996 12.8593C19.4174 12.8593 18.8351 12.9392 18.2529 13.099ZM21.6606 18.202C21.8319 18.5674 22.026 19.0297 22.2429 19.5891C23.0877 19.5092 24.0067 19.4692 24.9999 19.4692C25.7077 19.4692 26.4098 19.4864 27.1061 19.5206C27.0148 17.968 26.4554 16.5867 25.428 15.3766C24.6859 16.4839 23.4301 17.4258 21.6606 18.202ZM22.671 20.7878C23.2532 22.4774 23.647 24.2126 23.8525 25.9935C24.7544 25.4113 25.4908 24.6636 26.0616 23.7503C26.6324 22.837 26.9749 21.8495 27.089 20.7878C26.2556 20.7307 25.4965 20.7022 24.8115 20.7022C24.1836 20.7022 23.4701 20.7307 22.671 20.7878Z" fill="white"/>
</g>
<defs>
<clipPath id="clip0_1445_19989">
<rect width="17.1242" height="17.1242" fill="white" transform="translate(11.4375 11.438)"/>
</clipPath>
</defs>
</svg>
