<svg width="40" height="40" viewBox="0 0 40 40" fill="none" xmlns="http://www.w3.org/2000/svg">
<g clip-path="url(#clip0_1445_19991)">
<path d="M17.146 20.0001C17.146 18.4239 18.4234 17.1458 19.9996 17.1458C21.5758 17.1458 22.8539 18.4239 22.8539 20.0001C22.8539 21.5763 21.5758 22.8543 19.9996 22.8543C18.4234 22.8543 17.146 21.5763 17.146 20.0001ZM15.603 20.0001C15.603 22.4283 17.5714 24.3966 19.9996 24.3966C22.4278 24.3966 24.3961 22.4283 24.3961 20.0001C24.3961 17.5718 22.4278 15.6035 19.9996 15.6035C17.5714 15.6035 15.603 17.5718 15.603 20.0001ZM23.5427 15.4293C23.5427 15.9964 24.0026 16.457 24.5704 16.457C25.1375 16.457 25.5982 15.9964 25.5982 15.4293C25.5982 14.8621 25.1382 14.4022 24.5704 14.4022C24.0026 14.4022 23.5427 14.8621 23.5427 15.4293ZM16.5402 26.9694C15.7054 26.9314 15.2517 26.7924 14.9502 26.6748C14.5504 26.5192 14.2655 26.3338 13.9653 26.0343C13.6659 25.7349 13.4798 25.4499 13.3249 25.0502C13.2073 24.7487 13.0683 24.295 13.0303 23.4602C12.9888 22.5576 12.9805 22.2865 12.9805 20.0001C12.9805 17.7136 12.9895 17.4432 13.0303 16.54C13.0683 15.7052 13.208 15.2522 13.3249 14.95C13.4805 14.5502 13.6659 14.2653 13.9653 13.9651C14.2648 13.6657 14.5497 13.4796 14.9502 13.3247C15.2517 13.2071 15.7054 13.0681 16.5402 13.0301C17.4427 12.9886 17.7138 12.9803 19.9996 12.9803C22.286 12.9803 22.5565 12.9893 23.4597 13.0301C24.2945 13.0681 24.7475 13.2078 25.0497 13.3247C25.4495 13.4796 25.7344 13.6657 26.0346 13.9651C26.334 14.2646 26.5194 14.5502 26.675 14.95C26.7926 15.2515 26.9316 15.7052 26.9696 16.54C27.0111 17.4432 27.0194 17.7136 27.0194 20.0001C27.0194 22.2858 27.0111 22.557 26.9696 23.4602C26.9316 24.295 26.7919 24.7487 26.675 25.0502C26.5194 25.4499 26.334 25.7349 26.0346 26.0343C25.7351 26.3338 25.4495 26.5192 25.0497 26.6748C24.7482 26.7924 24.2945 26.9314 23.4597 26.9694C22.5572 27.0109 22.286 27.0192 19.9996 27.0192C17.7138 27.0192 17.4427 27.0109 16.5402 26.9694V26.9694ZM16.4696 11.4899C15.5581 11.5314 14.9356 11.6759 14.3914 11.8875C13.8284 12.1061 13.3512 12.3993 12.8747 12.8751C12.3988 13.351 12.1056 13.8282 11.887 14.3918C11.6754 14.9361 11.5309 15.5586 11.4894 16.4701C11.4472 17.383 11.4375 17.6749 11.4375 20.0001C11.4375 22.3253 11.4472 22.6171 11.4894 23.53C11.5309 24.4416 11.6754 25.064 11.887 25.6083C12.1056 26.1713 12.3981 26.6492 12.8747 27.125C13.3505 27.6008 13.8277 27.8934 14.3914 28.1126C14.9363 28.3243 15.5581 28.4688 16.4696 28.5103C17.3832 28.5518 17.6744 28.5622 19.9996 28.5622C22.3255 28.5622 22.6166 28.5525 23.5296 28.5103C24.4411 28.4688 25.0635 28.3243 25.6078 28.1126C26.1708 27.8934 26.648 27.6008 27.1245 27.125C27.6004 26.6492 27.8929 26.1713 28.1121 25.6083C28.3238 25.064 28.469 24.4416 28.5098 23.53C28.5513 22.6164 28.561 22.3253 28.561 20.0001C28.561 17.6749 28.5513 17.383 28.5098 16.4701C28.4683 15.5586 28.3238 14.9361 28.1121 14.3918C27.8929 13.8289 27.6004 13.3517 27.1245 12.8751C26.6487 12.3993 26.1708 12.1061 25.6085 11.8875C25.0635 11.6759 24.4411 11.5307 23.5302 11.4899C22.6173 11.4484 22.3255 11.438 20.0003 11.438C17.6744 11.438 17.3832 11.4477 16.4696 11.4899" fill="white"/>
</g>
<defs>
<clipPath id="clip0_1445_19991">
<rect width="17.1242" height="17.1242" fill="white" transform="translate(11.4375 11.438)"/>
</clipPath>
</defs>
</svg>
