<svg width="40" height="40" viewBox="0 0 40 40" fill="none" xmlns="http://www.w3.org/2000/svg">
<g clip-path="url(#clip0_1445_19990)">
<path d="M11.4375 13.4272C11.4375 12.8506 11.6303 12.3749 12.016 12.0001C12.4017 11.6254 12.9031 11.438 13.5202 11.438C14.1262 11.438 14.6166 11.6225 14.9913 11.9915C15.3769 12.372 15.5698 12.8679 15.5698 13.479C15.5698 14.0326 15.3825 14.4938 15.0078 14.8628C14.6221 15.2434 14.1152 15.4336 13.4871 15.4336H13.4706C12.8645 15.4336 12.3742 15.2434 11.9995 14.8628C11.6248 14.4823 11.4375 14.0037 11.4375 13.4272ZM11.6524 28.5621V17.0077H15.3218V28.5621H11.6524ZM17.3549 28.5621H21.0244V22.1103C21.0244 21.7067 21.0685 21.3954 21.1566 21.1763C21.3109 20.7842 21.5451 20.4527 21.8591 20.1817C22.1732 19.9107 22.5671 19.7752 23.041 19.7752C24.2751 19.7752 24.8922 20.6458 24.8922 22.3871V28.5621H28.5617V21.9373C28.5617 20.2307 28.176 18.9363 27.4046 18.0541C26.6333 17.172 25.614 16.7309 24.3468 16.7309C22.9252 16.7309 21.8178 17.3709 21.0244 18.6509V18.6855H21.0079L21.0244 18.6509V17.0077H17.3549C17.377 17.3767 17.388 18.524 17.388 20.4498C17.388 22.3755 17.377 25.0796 17.3549 28.5621Z" fill="white"/>
</g>
<defs>
<clipPath id="clip0_1445_19990">
<rect width="17.1242" height="17.1242" fill="white" transform="translate(11.4375 11.438)"/>
</clipPath>
</defs>
</svg>
